# xmcd
#
# Track frame offsets: 
#        150
#        15604
#        33628
#        50159
#        54639
#        69176
#        92084
#        106421
#        117809
#        122033
#        135453
#        138206
#        159046
#        182966
#        208960
#
# Disc length: 4605 seconds
#
# Revision: 1
# Processed by: cddbd v1.5.2PL0 Copyright (c) Steve Scherf et al.
# Submitted via: ExactAudioCopy v1.0b2
#
DISCID=d111fb0f
DTITLE=Barcella - La Boîte à Musiques
DYEAR=2010
DGENRE=Humour
TTITLE0=Coccinelle
TTITLE1=Obligatoire au Bac
TTITLE2=Mademoiselle
TTITLE3=Même pas Cap'
TTITLE4=Les Sornettes
TTITLE5=Mémé
TTITLE6=Saperl'Hip Hop
TTITLE7=Monsieur Propre
TTITLE8=Même pas Chiche
TTITLE9=Le Souffleur de Vers
TTITLE10=Avertissement
TTITLE11=La Queue de Poisson
TTITLE12=Les Souliers
TTITLE13=Big Badaboum (Bonus)
TTITLE14=Vidéos
EXTD=
EXTT0=
EXTT1=
EXTT2=
EXTT3=
EXTT4=
EXTT5=
EXTT6=
EXTT7=
EXTT8=
EXTT9=
EXTT10=
EXTT11=
EXTT12=
EXTT13=
EXTT14=
PLAYORDER=
